<mxfile host="app.diagrams.net" modified="2022-02-27T02:38:15.789Z" agent="5.0 (Windows NT 10.0; Win64; x64) AppleWebKit/537.36 (KHTML, like Gecko) Chrome/98.0.4758.102 Safari/537.36" etag="LT41-_wgMegRIDC08G-U" version="16.6.4" type="github">
  <diagram id="JXjJM4V6-0l3QLkHdt1O" name="Page-1">
    <mxGraphModel dx="1564" dy="806" grid="1" gridSize="10" guides="1" tooltips="1" connect="1" arrows="1" fold="1" page="1" pageScale="1" pageWidth="850" pageHeight="1100" math="0" shadow="0">
      <root>
        <mxCell id="0" />
        <mxCell id="1" parent="0" />
        <mxCell id="2xAtY265kL3GdkyfYf-X-1" value="" style="strokeWidth=1;shadow=0;dashed=0;align=center;html=1;shape=mxgraph.mockup.containers.browserWindow;rSize=0;strokeColor=#666666;strokeColor2=#008cff;strokeColor3=#c4c4c4;mainText=,;recursiveResize=0;" vertex="1" parent="1">
          <mxGeometry x="20" y="110" width="790" height="510" as="geometry" />
        </mxCell>
        <mxCell id="2xAtY265kL3GdkyfYf-X-2" value="badmintonhub" style="strokeWidth=1;shadow=0;dashed=0;align=center;html=1;shape=mxgraph.mockup.containers.anchor;fontSize=17;fontColor=#666666;align=left;" vertex="1" parent="2xAtY265kL3GdkyfYf-X-1">
          <mxGeometry x="60" y="12" width="110" height="26" as="geometry" />
        </mxCell>
        <mxCell id="2xAtY265kL3GdkyfYf-X-3" value="https://www.badmintonhub.com/home" style="strokeWidth=1;shadow=0;dashed=0;align=center;html=1;shape=mxgraph.mockup.containers.anchor;rSize=0;fontSize=17;fontColor=#666666;align=left;" vertex="1" parent="2xAtY265kL3GdkyfYf-X-1">
          <mxGeometry x="130" y="60" width="250" height="26" as="geometry" />
        </mxCell>
        <mxCell id="2xAtY265kL3GdkyfYf-X-13" value="Check availability" style="strokeWidth=1;shadow=0;dashed=0;align=center;html=1;shape=mxgraph.mockup.buttons.button;strokeColor=#666666;fontColor=#ffffff;mainText=;buttonStyle=round;fontSize=17;fontStyle=1;fillColor=#008cff;whiteSpace=wrap;" vertex="1" parent="2xAtY265kL3GdkyfYf-X-1">
          <mxGeometry x="76" y="400" width="150" height="50" as="geometry" />
        </mxCell>
        <mxCell id="2xAtY265kL3GdkyfYf-X-14" value="" style="verticalLabelPosition=bottom;shadow=0;dashed=0;align=center;html=1;verticalAlign=top;strokeWidth=1;shape=mxgraph.mockup.forms.splitter;strokeColor=#999999;direction=north;fontSize=14;" vertex="1" parent="2xAtY265kL3GdkyfYf-X-1">
          <mxGeometry x="310" y="110" width="5" height="350" as="geometry" />
        </mxCell>
        <mxCell id="2xAtY265kL3GdkyfYf-X-15" value="Sell" style="strokeWidth=1;shadow=0;dashed=0;align=center;html=1;shape=mxgraph.mockup.forms.uRect;fontSize=17;fontColor=#666666;align=left;spacingLeft=5;strokeColor=#666666;" vertex="1" parent="2xAtY265kL3GdkyfYf-X-1">
          <mxGeometry x="16" y="110" width="70" height="30" as="geometry" />
        </mxCell>
        <mxCell id="2xAtY265kL3GdkyfYf-X-16" value="Buy" style="strokeWidth=1;shadow=0;dashed=0;align=center;html=1;shape=mxgraph.mockup.forms.uRect;fontSize=17;fontColor=#ffffff;align=left;spacingLeft=5;strokeColor=#008cff;fillColor=#008cff;" vertex="1" parent="2xAtY265kL3GdkyfYf-X-1">
          <mxGeometry x="80" y="110" width="70" height="30" as="geometry" />
        </mxCell>
        <mxCell id="2xAtY265kL3GdkyfYf-X-17" value="View" style="strokeWidth=1;shadow=0;dashed=0;align=center;html=1;shape=mxgraph.mockup.forms.uRect;fontSize=17;fontColor=#666666;align=left;spacingLeft=5;strokeColor=#666666;" vertex="1" parent="2xAtY265kL3GdkyfYf-X-1">
          <mxGeometry x="155" y="110" width="70" height="30" as="geometry" />
        </mxCell>
        <mxCell id="2xAtY265kL3GdkyfYf-X-5" value="" style="strokeWidth=1;shadow=0;dashed=0;align=center;html=1;shape=mxgraph.mockup.forms.rrect;rSize=0;strokeColor=#999999;fillColor=#ffffff;fontSize=14;" vertex="1" parent="2xAtY265kL3GdkyfYf-X-1">
          <mxGeometry x="76" y="180" width="150" height="200" as="geometry" />
        </mxCell>
        <mxCell id="2xAtY265kL3GdkyfYf-X-6" value="Select Items" style="strokeWidth=1;shadow=0;dashed=0;align=center;html=1;shape=mxgraph.mockup.forms.rrect;rSize=0;strokeColor=#999999;fontColor=#008cff;fontSize=17;fillColor=#ffffff;resizeWidth=1;" vertex="1" parent="2xAtY265kL3GdkyfYf-X-5">
          <mxGeometry width="150" height="30" relative="1" as="geometry" />
        </mxCell>
        <mxCell id="2xAtY265kL3GdkyfYf-X-7" value="Racquets" style="strokeWidth=1;shadow=0;dashed=0;align=center;html=1;shape=mxgraph.mockup.forms.anchor;fontSize=17;fontColor=#666666;align=left;spacingLeft=5;resizeWidth=1;" vertex="1" parent="2xAtY265kL3GdkyfYf-X-5">
          <mxGeometry width="150" height="20" relative="1" as="geometry">
            <mxPoint y="40" as="offset" />
          </mxGeometry>
        </mxCell>
        <mxCell id="2xAtY265kL3GdkyfYf-X-8" value="Shuttlecock" style="strokeWidth=1;shadow=0;dashed=0;align=center;html=1;shape=mxgraph.mockup.forms.anchor;fontSize=17;fontColor=#666666;align=left;spacingLeft=5;resizeWidth=1;" vertex="1" parent="2xAtY265kL3GdkyfYf-X-5">
          <mxGeometry width="150" height="20" relative="1" as="geometry">
            <mxPoint y="70" as="offset" />
          </mxGeometry>
        </mxCell>
        <mxCell id="2xAtY265kL3GdkyfYf-X-9" value="Racquet Bag" style="strokeWidth=1;shadow=0;dashed=0;align=center;html=1;shape=mxgraph.mockup.forms.rrect;rSize=0;fontSize=17;fontColor=#666666;align=left;spacingLeft=5;fillColor=#ddeeff;strokeColor=none;resizeWidth=1;" vertex="1" parent="2xAtY265kL3GdkyfYf-X-5">
          <mxGeometry width="150" height="20" relative="1" as="geometry">
            <mxPoint y="100" as="offset" />
          </mxGeometry>
        </mxCell>
        <mxCell id="2xAtY265kL3GdkyfYf-X-10" value="Badminton Net" style="strokeWidth=1;shadow=0;dashed=0;align=center;html=1;shape=mxgraph.mockup.forms.anchor;fontSize=17;fontColor=#666666;align=left;spacingLeft=5;resizeWidth=1;" vertex="1" parent="2xAtY265kL3GdkyfYf-X-5">
          <mxGeometry width="150" height="20" relative="1" as="geometry">
            <mxPoint y="130" as="offset" />
          </mxGeometry>
        </mxCell>
        <mxCell id="2xAtY265kL3GdkyfYf-X-11" value="Talk with Coach" style="strokeWidth=1;shadow=0;dashed=0;align=center;html=1;shape=mxgraph.mockup.forms.anchor;fontSize=17;fontColor=#666666;align=left;spacingLeft=5;resizeWidth=1;" vertex="1" parent="2xAtY265kL3GdkyfYf-X-5">
          <mxGeometry x="-5.684341886080802e-14" y="160" width="150" height="20" as="geometry" />
        </mxCell>
        <mxCell id="2xAtY265kL3GdkyfYf-X-33" value="" style="verticalLabelPosition=bottom;shadow=0;dashed=0;align=center;html=1;verticalAlign=top;strokeWidth=1;shape=mxgraph.mockup.graphics.simpleIcon;strokeColor=#999999;fontSize=14;" vertex="1" parent="2xAtY265kL3GdkyfYf-X-1">
          <mxGeometry x="340" y="150" width="50" height="50" as="geometry" />
        </mxCell>
        <mxCell id="2xAtY265kL3GdkyfYf-X-34" value="" style="verticalLabelPosition=bottom;shadow=0;dashed=0;align=center;html=1;verticalAlign=top;strokeWidth=1;shape=mxgraph.mockup.graphics.simpleIcon;strokeColor=#999999;fontSize=14;" vertex="1" parent="2xAtY265kL3GdkyfYf-X-1">
          <mxGeometry x="430" y="150" width="50" height="50" as="geometry" />
        </mxCell>
        <mxCell id="2xAtY265kL3GdkyfYf-X-35" value="" style="verticalLabelPosition=bottom;shadow=0;dashed=0;align=center;html=1;verticalAlign=top;strokeWidth=1;shape=mxgraph.mockup.graphics.simpleIcon;strokeColor=#999999;fontSize=14;" vertex="1" parent="2xAtY265kL3GdkyfYf-X-1">
          <mxGeometry x="340" y="230" width="50" height="50" as="geometry" />
        </mxCell>
        <mxCell id="2xAtY265kL3GdkyfYf-X-36" value="" style="verticalLabelPosition=bottom;shadow=0;dashed=0;align=center;html=1;verticalAlign=top;strokeWidth=1;shape=mxgraph.mockup.graphics.simpleIcon;strokeColor=#999999;fontSize=14;" vertex="1" parent="2xAtY265kL3GdkyfYf-X-1">
          <mxGeometry x="430" y="230" width="50" height="50" as="geometry" />
        </mxCell>
        <mxCell id="2xAtY265kL3GdkyfYf-X-37" value="" style="verticalLabelPosition=bottom;shadow=0;dashed=0;align=center;html=1;verticalAlign=top;strokeWidth=1;shape=mxgraph.mockup.graphics.simpleIcon;strokeColor=#999999;fontSize=14;" vertex="1" parent="2xAtY265kL3GdkyfYf-X-1">
          <mxGeometry x="340" y="310" width="50" height="50" as="geometry" />
        </mxCell>
        <mxCell id="2xAtY265kL3GdkyfYf-X-38" value="" style="verticalLabelPosition=bottom;shadow=0;dashed=0;align=center;html=1;verticalAlign=top;strokeWidth=1;shape=mxgraph.mockup.graphics.simpleIcon;strokeColor=#999999;fontSize=14;" vertex="1" parent="2xAtY265kL3GdkyfYf-X-1">
          <mxGeometry x="430" y="310" width="50" height="50" as="geometry" />
        </mxCell>
        <mxCell id="2xAtY265kL3GdkyfYf-X-39" value="" style="verticalLabelPosition=bottom;shadow=0;dashed=0;align=center;html=1;verticalAlign=top;strokeWidth=1;shape=mxgraph.mockup.forms.splitter;strokeColor=#999999;direction=north;fontSize=14;" vertex="1" parent="2xAtY265kL3GdkyfYf-X-1">
          <mxGeometry x="530" y="110" width="5" height="350" as="geometry" />
        </mxCell>
        <mxCell id="2xAtY265kL3GdkyfYf-X-40" value="Proceed to Buy" style="strokeWidth=1;shadow=0;dashed=0;align=center;html=1;shape=mxgraph.mockup.buttons.button;strokeColor=#666666;fontColor=#ffffff;mainText=;buttonStyle=round;fontSize=17;fontStyle=1;fillColor=#008cff;whiteSpace=wrap;" vertex="1" parent="2xAtY265kL3GdkyfYf-X-1">
          <mxGeometry x="340" y="400" width="150" height="50" as="geometry" />
        </mxCell>
        <mxCell id="2xAtY265kL3GdkyfYf-X-41" value="Confirm" style="strokeWidth=1;shadow=0;dashed=0;align=center;html=1;shape=mxgraph.mockup.buttons.button;strokeColor=#666666;fontColor=#ffffff;mainText=;buttonStyle=round;fontSize=17;fontStyle=1;fillColor=#008cff;whiteSpace=wrap;" vertex="1" parent="2xAtY265kL3GdkyfYf-X-1">
          <mxGeometry x="620" y="390" width="150" height="50" as="geometry" />
        </mxCell>
        <mxCell id="2xAtY265kL3GdkyfYf-X-42" value="" style="shape=flexArrow;endArrow=classic;html=1;rounded=0;fontSize=14;" edge="1" parent="2xAtY265kL3GdkyfYf-X-1" source="2xAtY265kL3GdkyfYf-X-6">
          <mxGeometry width="50" height="50" relative="1" as="geometry">
            <mxPoint x="350" y="270" as="sourcePoint" />
            <mxPoint x="313" y="195" as="targetPoint" />
          </mxGeometry>
        </mxCell>
        <mxCell id="2xAtY265kL3GdkyfYf-X-44" value="" style="shape=flexArrow;endArrow=classic;html=1;rounded=0;fontSize=14;entryX=-0.012;entryY=0.39;entryDx=0;entryDy=0;entryPerimeter=0;" edge="1" parent="2xAtY265kL3GdkyfYf-X-1" target="2xAtY265kL3GdkyfYf-X-45">
          <mxGeometry width="50" height="50" relative="1" as="geometry">
            <mxPoint x="510" y="220" as="sourcePoint" />
            <mxPoint x="597" y="220" as="targetPoint" />
          </mxGeometry>
        </mxCell>
        <mxCell id="2xAtY265kL3GdkyfYf-X-45" value="Payment" style="strokeWidth=1;shadow=0;dashed=0;align=center;html=1;shape=mxgraph.mockup.containers.window;align=left;verticalAlign=top;spacingLeft=8;strokeColor2=#008cff;strokeColor3=#c4c4c4;fontColor=#666666;mainText=;fontSize=17;labelBackgroundColor=none;" vertex="1" parent="2xAtY265kL3GdkyfYf-X-1">
          <mxGeometry x="590" y="125" width="190" height="245" as="geometry" />
        </mxCell>
        <mxCell id="2xAtY265kL3GdkyfYf-X-46" value="Request to Buy" style="strokeWidth=1;shadow=0;dashed=0;align=center;html=1;shape=mxgraph.mockup.buttons.button;strokeColor=#666666;fontColor=#ffffff;mainText=;buttonStyle=round;fontSize=17;fontStyle=1;fillColor=#008cff;whiteSpace=wrap;" vertex="1" parent="2xAtY265kL3GdkyfYf-X-1">
          <mxGeometry x="635" y="220" width="100" height="40" as="geometry" />
        </mxCell>
        <mxCell id="2xAtY265kL3GdkyfYf-X-4" value="&lt;b&gt;&lt;font style=&quot;font-size: 14px&quot;&gt;Home Page - Buyer/Seller&lt;/font&gt;&lt;/b&gt;" style="text;html=1;strokeColor=none;fillColor=none;align=center;verticalAlign=middle;whiteSpace=wrap;rounded=0;" vertex="1" parent="1">
          <mxGeometry x="300" y="30" width="200" height="30" as="geometry" />
        </mxCell>
        <mxCell id="2xAtY265kL3GdkyfYf-X-47" value="" style="strokeWidth=1;shadow=0;dashed=0;align=center;html=1;shape=mxgraph.mockup.containers.browserWindow;rSize=0;strokeColor=#666666;strokeColor2=#008cff;strokeColor3=#c4c4c4;mainText=,;recursiveResize=0;" vertex="1" parent="1">
          <mxGeometry x="20" y="660" width="790" height="510" as="geometry" />
        </mxCell>
        <mxCell id="2xAtY265kL3GdkyfYf-X-48" value="badmintonhub" style="strokeWidth=1;shadow=0;dashed=0;align=center;html=1;shape=mxgraph.mockup.containers.anchor;fontSize=17;fontColor=#666666;align=left;" vertex="1" parent="2xAtY265kL3GdkyfYf-X-47">
          <mxGeometry x="60" y="12" width="110" height="26" as="geometry" />
        </mxCell>
        <mxCell id="2xAtY265kL3GdkyfYf-X-49" value="https://www.badmintonhub.com/home" style="strokeWidth=1;shadow=0;dashed=0;align=center;html=1;shape=mxgraph.mockup.containers.anchor;rSize=0;fontSize=17;fontColor=#666666;align=left;" vertex="1" parent="2xAtY265kL3GdkyfYf-X-47">
          <mxGeometry x="130" y="60" width="250" height="26" as="geometry" />
        </mxCell>
        <mxCell id="2xAtY265kL3GdkyfYf-X-50" value="Continue" style="strokeWidth=1;shadow=0;dashed=0;align=center;html=1;shape=mxgraph.mockup.buttons.button;strokeColor=#666666;fontColor=#ffffff;mainText=;buttonStyle=round;fontSize=17;fontStyle=1;fillColor=#008cff;whiteSpace=wrap;" vertex="1" parent="2xAtY265kL3GdkyfYf-X-47">
          <mxGeometry x="76" y="400" width="150" height="50" as="geometry" />
        </mxCell>
        <mxCell id="2xAtY265kL3GdkyfYf-X-51" value="" style="verticalLabelPosition=bottom;shadow=0;dashed=0;align=center;html=1;verticalAlign=top;strokeWidth=1;shape=mxgraph.mockup.forms.splitter;strokeColor=#999999;direction=north;fontSize=14;" vertex="1" parent="2xAtY265kL3GdkyfYf-X-47">
          <mxGeometry x="310" y="110" width="5" height="350" as="geometry" />
        </mxCell>
        <mxCell id="2xAtY265kL3GdkyfYf-X-54" value="View" style="strokeWidth=1;shadow=0;dashed=0;align=center;html=1;shape=mxgraph.mockup.forms.uRect;fontSize=17;fontColor=#666666;align=left;spacingLeft=5;strokeColor=#666666;" vertex="1" parent="2xAtY265kL3GdkyfYf-X-47">
          <mxGeometry x="155" y="110" width="70" height="30" as="geometry" />
        </mxCell>
        <mxCell id="2xAtY265kL3GdkyfYf-X-55" value="" style="strokeWidth=1;shadow=0;dashed=0;align=center;html=1;shape=mxgraph.mockup.forms.rrect;rSize=0;strokeColor=#999999;fillColor=#ffffff;fontSize=14;" vertex="1" parent="2xAtY265kL3GdkyfYf-X-47">
          <mxGeometry x="76" y="180" width="150" height="200" as="geometry" />
        </mxCell>
        <mxCell id="2xAtY265kL3GdkyfYf-X-56" value="Select Items" style="strokeWidth=1;shadow=0;dashed=0;align=center;html=1;shape=mxgraph.mockup.forms.rrect;rSize=0;strokeColor=#999999;fontColor=#008cff;fontSize=17;fillColor=#ffffff;resizeWidth=1;" vertex="1" parent="2xAtY265kL3GdkyfYf-X-55">
          <mxGeometry width="150" height="30" relative="1" as="geometry" />
        </mxCell>
        <mxCell id="2xAtY265kL3GdkyfYf-X-57" value="Racquets" style="strokeWidth=1;shadow=0;dashed=0;align=center;html=1;shape=mxgraph.mockup.forms.anchor;fontSize=17;fontColor=#666666;align=left;spacingLeft=5;resizeWidth=1;" vertex="1" parent="2xAtY265kL3GdkyfYf-X-55">
          <mxGeometry width="150" height="20" relative="1" as="geometry">
            <mxPoint y="40" as="offset" />
          </mxGeometry>
        </mxCell>
        <mxCell id="2xAtY265kL3GdkyfYf-X-58" value="Shuttlecock" style="strokeWidth=1;shadow=0;dashed=0;align=center;html=1;shape=mxgraph.mockup.forms.anchor;fontSize=17;fontColor=#666666;align=left;spacingLeft=5;resizeWidth=1;" vertex="1" parent="2xAtY265kL3GdkyfYf-X-55">
          <mxGeometry width="150" height="20" relative="1" as="geometry">
            <mxPoint y="70" as="offset" />
          </mxGeometry>
        </mxCell>
        <mxCell id="2xAtY265kL3GdkyfYf-X-59" value="Racquet Bag" style="strokeWidth=1;shadow=0;dashed=0;align=center;html=1;shape=mxgraph.mockup.forms.rrect;rSize=0;fontSize=17;fontColor=#666666;align=left;spacingLeft=5;fillColor=#ddeeff;strokeColor=none;resizeWidth=1;" vertex="1" parent="2xAtY265kL3GdkyfYf-X-55">
          <mxGeometry width="150" height="20" relative="1" as="geometry">
            <mxPoint y="100" as="offset" />
          </mxGeometry>
        </mxCell>
        <mxCell id="2xAtY265kL3GdkyfYf-X-60" value="Badminton Net" style="strokeWidth=1;shadow=0;dashed=0;align=center;html=1;shape=mxgraph.mockup.forms.anchor;fontSize=17;fontColor=#666666;align=left;spacingLeft=5;resizeWidth=1;" vertex="1" parent="2xAtY265kL3GdkyfYf-X-55">
          <mxGeometry width="150" height="20" relative="1" as="geometry">
            <mxPoint y="130" as="offset" />
          </mxGeometry>
        </mxCell>
        <mxCell id="2xAtY265kL3GdkyfYf-X-61" value="Talk with Coach" style="strokeWidth=1;shadow=0;dashed=0;align=center;html=1;shape=mxgraph.mockup.forms.anchor;fontSize=17;fontColor=#666666;align=left;spacingLeft=5;resizeWidth=1;" vertex="1" parent="2xAtY265kL3GdkyfYf-X-55">
          <mxGeometry x="-5.684341886080802e-14" y="160" width="150" height="20" as="geometry" />
        </mxCell>
        <mxCell id="2xAtY265kL3GdkyfYf-X-62" value="" style="verticalLabelPosition=bottom;shadow=0;dashed=0;align=center;html=1;verticalAlign=top;strokeWidth=1;shape=mxgraph.mockup.graphics.simpleIcon;strokeColor=#999999;fontSize=14;" vertex="1" parent="2xAtY265kL3GdkyfYf-X-47">
          <mxGeometry x="340" y="150" width="50" height="50" as="geometry" />
        </mxCell>
        <mxCell id="2xAtY265kL3GdkyfYf-X-63" value="" style="verticalLabelPosition=bottom;shadow=0;dashed=0;align=center;html=1;verticalAlign=top;strokeWidth=1;shape=mxgraph.mockup.graphics.simpleIcon;strokeColor=#999999;fontSize=14;" vertex="1" parent="2xAtY265kL3GdkyfYf-X-47">
          <mxGeometry x="430" y="150" width="50" height="50" as="geometry" />
        </mxCell>
        <mxCell id="2xAtY265kL3GdkyfYf-X-64" value="" style="verticalLabelPosition=bottom;shadow=0;dashed=0;align=center;html=1;verticalAlign=top;strokeWidth=1;shape=mxgraph.mockup.graphics.simpleIcon;strokeColor=#999999;fontSize=14;" vertex="1" parent="2xAtY265kL3GdkyfYf-X-47">
          <mxGeometry x="340" y="230" width="50" height="50" as="geometry" />
        </mxCell>
        <mxCell id="2xAtY265kL3GdkyfYf-X-65" value="" style="verticalLabelPosition=bottom;shadow=0;dashed=0;align=center;html=1;verticalAlign=top;strokeWidth=1;shape=mxgraph.mockup.graphics.simpleIcon;strokeColor=#999999;fontSize=14;" vertex="1" parent="2xAtY265kL3GdkyfYf-X-47">
          <mxGeometry x="430" y="230" width="50" height="50" as="geometry" />
        </mxCell>
        <mxCell id="2xAtY265kL3GdkyfYf-X-66" value="" style="verticalLabelPosition=bottom;shadow=0;dashed=0;align=center;html=1;verticalAlign=top;strokeWidth=1;shape=mxgraph.mockup.graphics.simpleIcon;strokeColor=#999999;fontSize=14;" vertex="1" parent="2xAtY265kL3GdkyfYf-X-47">
          <mxGeometry x="340" y="310" width="50" height="50" as="geometry" />
        </mxCell>
        <mxCell id="2xAtY265kL3GdkyfYf-X-67" value="" style="verticalLabelPosition=bottom;shadow=0;dashed=0;align=center;html=1;verticalAlign=top;strokeWidth=1;shape=mxgraph.mockup.graphics.simpleIcon;strokeColor=#999999;fontSize=14;" vertex="1" parent="2xAtY265kL3GdkyfYf-X-47">
          <mxGeometry x="430" y="310" width="50" height="50" as="geometry" />
        </mxCell>
        <mxCell id="2xAtY265kL3GdkyfYf-X-68" value="" style="verticalLabelPosition=bottom;shadow=0;dashed=0;align=center;html=1;verticalAlign=top;strokeWidth=1;shape=mxgraph.mockup.forms.splitter;strokeColor=#999999;direction=north;fontSize=14;" vertex="1" parent="2xAtY265kL3GdkyfYf-X-47">
          <mxGeometry x="530" y="110" width="5" height="350" as="geometry" />
        </mxCell>
        <mxCell id="2xAtY265kL3GdkyfYf-X-69" value="Continue" style="strokeWidth=1;shadow=0;dashed=0;align=center;html=1;shape=mxgraph.mockup.buttons.button;strokeColor=#666666;fontColor=#ffffff;mainText=;buttonStyle=round;fontSize=17;fontStyle=1;fillColor=#008cff;whiteSpace=wrap;" vertex="1" parent="2xAtY265kL3GdkyfYf-X-47">
          <mxGeometry x="340" y="400" width="150" height="50" as="geometry" />
        </mxCell>
        <mxCell id="2xAtY265kL3GdkyfYf-X-70" value="Confirm" style="strokeWidth=1;shadow=0;dashed=0;align=center;html=1;shape=mxgraph.mockup.buttons.button;strokeColor=#666666;fontColor=#ffffff;mainText=;buttonStyle=round;fontSize=17;fontStyle=1;fillColor=#008cff;whiteSpace=wrap;" vertex="1" parent="2xAtY265kL3GdkyfYf-X-47">
          <mxGeometry x="620" y="390" width="150" height="50" as="geometry" />
        </mxCell>
        <mxCell id="2xAtY265kL3GdkyfYf-X-71" value="" style="shape=flexArrow;endArrow=classic;html=1;rounded=0;fontSize=14;" edge="1" parent="2xAtY265kL3GdkyfYf-X-47" source="2xAtY265kL3GdkyfYf-X-56">
          <mxGeometry width="50" height="50" relative="1" as="geometry">
            <mxPoint x="350" y="270" as="sourcePoint" />
            <mxPoint x="313" y="195" as="targetPoint" />
          </mxGeometry>
        </mxCell>
        <mxCell id="2xAtY265kL3GdkyfYf-X-72" value="" style="shape=flexArrow;endArrow=classic;html=1;rounded=0;fontSize=14;entryX=-0.012;entryY=0.39;entryDx=0;entryDy=0;entryPerimeter=0;" edge="1" parent="2xAtY265kL3GdkyfYf-X-47" target="2xAtY265kL3GdkyfYf-X-73">
          <mxGeometry width="50" height="50" relative="1" as="geometry">
            <mxPoint x="510" y="220" as="sourcePoint" />
            <mxPoint x="597" y="220" as="targetPoint" />
          </mxGeometry>
        </mxCell>
        <mxCell id="2xAtY265kL3GdkyfYf-X-73" value="Confirmation" style="strokeWidth=1;shadow=0;dashed=0;align=center;html=1;shape=mxgraph.mockup.containers.window;align=left;verticalAlign=top;spacingLeft=8;strokeColor2=#008cff;strokeColor3=#c4c4c4;fontColor=#666666;mainText=;fontSize=17;labelBackgroundColor=none;" vertex="1" parent="2xAtY265kL3GdkyfYf-X-47">
          <mxGeometry x="590" y="125" width="190" height="245" as="geometry" />
        </mxCell>
        <mxCell id="2xAtY265kL3GdkyfYf-X-74" value="Request to Sell" style="strokeWidth=1;shadow=0;dashed=0;align=center;html=1;shape=mxgraph.mockup.buttons.button;strokeColor=#666666;fontColor=#ffffff;mainText=;buttonStyle=round;fontSize=17;fontStyle=1;fillColor=#008cff;whiteSpace=wrap;" vertex="1" parent="2xAtY265kL3GdkyfYf-X-47">
          <mxGeometry x="635" y="220" width="100" height="40" as="geometry" />
        </mxCell>
        <mxCell id="2xAtY265kL3GdkyfYf-X-102" value="Sell" style="strokeWidth=1;shadow=0;dashed=0;align=center;html=1;shape=mxgraph.mockup.forms.uRect;fontSize=17;fontColor=#ffffff;align=left;spacingLeft=5;strokeColor=#008cff;fillColor=#008cff;" vertex="1" parent="2xAtY265kL3GdkyfYf-X-47">
          <mxGeometry x="6" y="110" width="70" height="30" as="geometry" />
        </mxCell>
        <mxCell id="2xAtY265kL3GdkyfYf-X-130" value="Buy" style="strokeWidth=1;shadow=0;dashed=0;align=center;html=1;shape=mxgraph.mockup.forms.uRect;fontSize=17;fontColor=#666666;align=left;spacingLeft=5;strokeColor=#666666;" vertex="1" parent="2xAtY265kL3GdkyfYf-X-47">
          <mxGeometry x="80" y="110" width="70" height="30" as="geometry" />
        </mxCell>
      </root>
    </mxGraphModel>
  </diagram>
</mxfile>
